G04 #@! TF.FileFunction,Copper,L1,Top,Signal*
%FSLAX46Y46*%
G04 Gerber Fmt 4.6, Leading zero omitted, Abs format (unit mm)*
G04 Created by KiCad (PCBNEW 4.0.7) date Tue May 29 18:15:45 2018*
%MOMM*%
%LPD*%
G01*
G04 APERTURE LIST*
%ADD10C,0.100000*%
%ADD11C,2.000000*%
%ADD12O,2.000000X2.000000*%
%ADD13R,2.000000X2.000000*%
%ADD14C,0.500000*%
G04 APERTURE END LIST*
D10*
D11*
X53340000Y-25400000D03*
D12*
X53340000Y-35560000D03*
D11*
X48260000Y-35560000D03*
D12*
X48260000Y-25400000D03*
D13*
X26670000Y-26670000D03*
D12*
X26670000Y-29210000D03*
X26670000Y-31750000D03*
X26670000Y-34290000D03*
X26670000Y-36830000D03*
D13*
X43180000Y-17780000D03*
D12*
X43180000Y-20320000D03*
X43180000Y-22860000D03*
D13*
X38100000Y-17780000D03*
D12*
X38100000Y-20320000D03*
X38100000Y-22860000D03*
D13*
X50800000Y-39370000D03*
D12*
X48260000Y-39370000D03*
D13*
X36830000Y-39370000D03*
D12*
X39370000Y-39370000D03*
D11*
X38100000Y-33020000D03*
X40640000Y-33020000D03*
D13*
X35560000Y-33020000D03*
D11*
X30480000Y-20320000D03*
D14*
X53340000Y-35560000D02*
X53340000Y-38180000D01*
X53340000Y-38180000D02*
X52150000Y-39370000D01*
X52150000Y-39370000D02*
X50800000Y-39370000D01*
X53340000Y-34290000D02*
X52070000Y-33020000D01*
X52070000Y-33020000D02*
X40640000Y-33020000D01*
X53340000Y-35560000D02*
X53340000Y-34290000D01*
X30480000Y-20320000D02*
X30480000Y-35560000D01*
X31750000Y-36830000D02*
X35560000Y-36830000D01*
X30480000Y-35560000D02*
X31750000Y-36830000D01*
X36830000Y-38100000D02*
X36830000Y-39370000D01*
X35560000Y-36830000D02*
X36830000Y-38100000D01*
X36830000Y-39290000D02*
X36830000Y-39370000D01*
X39370000Y-38100000D02*
X39370000Y-39370000D01*
X35560000Y-34290000D02*
X39370000Y-38100000D01*
X35560000Y-33020000D02*
X35560000Y-34290000D01*
X38100000Y-29210000D02*
X38100000Y-33020000D01*
X39370000Y-27940000D02*
X38100000Y-29210000D01*
X49530000Y-27940000D02*
X39370000Y-27940000D01*
X52070000Y-25400000D02*
X49530000Y-27940000D01*
X53340000Y-25400000D02*
X52070000Y-25400000D01*
X38100000Y-34290000D02*
X39370000Y-35560000D01*
X39370000Y-35560000D02*
X48260000Y-35560000D01*
X38100000Y-33020000D02*
X38100000Y-34290000D01*
M02*
