<?xml version="1.0" standalone="no"?>
 <!DOCTYPE svg PUBLIC "-//W3C//DTD SVG 1.1//EN" 
 "http://www.w3.org/Graphics/SVG/1.1/DTD/svg11.dtd"> 
<svg xmlns="http://www.w3.org/2000/svg" version="1.1" 
    width="29.7002cm" height="21.0007cm" viewBox="0 0 116930 82680 ">
<title>SVG Picture created as electronics-Dwgs.User.svg date 2018/05/29 18:15:31 </title>
  <desc>Picture generated by PCBNEW </desc>
<g style="fill:#000000; fill-opacity:1;stroke:#000000; stroke-opacity:1;
stroke-linecap:round; stroke-linejoin:round; "
 transform="translate(0 0) scale(1 1)">
</g>
<g style="fill:#000000; fill-opacity:0.0; 
stroke:#000000; stroke-width:-0.000393701; stroke-opacity:1; 
stroke-linecap:round; stroke-linejoin:round;">
</g>
<g style="fill:#000000; fill-opacity:0.0; 
stroke:#000000; stroke-width:196.85; stroke-opacity:1; 
stroke-linecap:round; stroke-linejoin:round;">
<path d="M18862 9356
L18787 9318
L18750 9281
L18712 9206
L18712 8981
L18750 8906
L18787 8868
L18862 8831
L18975 8831
L19050 8868
L19087 8906
L19125 8981
L19125 9206
L19087 9281
L19050 9318
L18975 9356
L18862 9356
" />
<path d="M19462 8831
L19462 9618
" />
<path d="M19462 8868
L19537 8831
L19687 8831
L19762 8868
L19799 8906
L19837 8981
L19837 9206
L19799 9281
L19762 9318
L19687 9356
L19537 9356
L19462 9318
" />
<path d="M20062 8831
L20362 8831
" />
<path d="M20174 8568
L20174 9243
L20212 9318
L20287 9356
L20362 9356
" />
<path d="M15200 16556
L15799 16556
" />
<path d="M14200 16556
L14799 16556
" />
<path d="M14500 16856
L14500 16256
" />
<path d="M18700 8056
L19299 8056
" />
<path d="M18700 7056
L19299 7056
" />
<path d="M19000 7356
L19000 6756
" />
<path d="M12943 13462
L12981 13349
L13018 13312
L13093 13274
L13206 13274
L13281 13312
L13318 13349
L13356 13424
L13356 13724
L12568 13724
L12568 13462
L12606 13387
L12643 13349
L12718 13312
L12793 13312
L12868 13349
L12906 13387
L12943 13462
L12943 13724
" />
<path d="M13281 12487
L13318 12524
L13356 12637
L13356 12712
L13318 12824
L13243 12899
L13168 12937
L13018 12974
L12906 12974
L12756 12937
L12681 12899
L12606 12824
L12568 12712
L12568 12637
L12606 12524
L12643 12487
" />
<path d="M12568 12224
L12568 11737
L12868 12000
L12868 11887
L12906 11812
L12943 11775
L13018 11737
L13206 11737
L13281 11775
L13318 11812
L13356 11887
L13356 12112
L13318 12187
L13281 12224
" />
<path d="M12568 11475
L12568 10987
L12868 11250
L12868 11137
L12906 11062
L12943 11025
L13018 10987
L13206 10987
L13281 11025
L13318 11062
L13356 11137
L13356 11362
L13318 11437
L13281 11475
" />
<path d="M12568 10725
L12568 10200
L13356 10537
" />
<path d="M19700 16556
L20299 16556
" />
<path d="M18700 16556
L19299 16556
" />
<path d="M19000 16856
L19000 16256
" />
<path d="M9200 14556
L9799 14556
" />
<path d="M9500 14856
L9500 14256
" />
<path d="M9200 10556
L9799 10556
" />
<path d="M21356 12093
L21356 12543
" />
<path d="M21356 12318
L20568 12318
L20681 12393
L20756 12468
L20793 12543
" />
<path d="M21356 11756
L20568 11756
" />
<path d="M21056 11681
L21356 11456
" />
<path d="M20831 11456
L21131 11756
" />
</g>
<g style="fill:#000000; fill-opacity:0.0; 
stroke:#000000; stroke-width:147.638; stroke-opacity:1; 
stroke-linecap:round; stroke-linejoin:round;">
<path d="M18873 12449
L19267 12449
" />
<path d="M18648 12590
L19070 12731
L19070 12365
" />
<path d="M18676 12196
L18676 11803
L19267 12056
" />
<path d="M18676 11465
L18676 11409
L18704 11353
L18732 11325
L18789 11296
L18901 11268
L19042 11268
L19154 11296
L19210 11325
L19239 11353
L19267 11409
L19267 11465
L19239 11521
L19210 11550
L19154 11578
L19042 11606
L18901 11606
L18789 11578
L18732 11550
L18704 11521
L18676 11465
" />
</g>
<g style="fill:#000000; fill-opacity:0.0; 
stroke:#000000; stroke-width:196.85; stroke-opacity:1; 
stroke-linecap:round; stroke-linejoin:round;">
<path d="M16975 15443
L17087 15481
L17125 15518
L17162 15593
L17162 15706
L17125 15781
L17087 15818
L17012 15856
L16712 15856
L16712 15068
L16975 15068
L17050 15106
L17087 15143
L17125 15218
L17125 15293
L17087 15368
L17050 15406
L16975 15443
L16712 15443
" />
<path d="M17837 15856
L17837 15443
L17799 15368
L17724 15331
L17574 15331
L17500 15368
" />
<path d="M17837 15818
L17762 15856
L17574 15856
L17500 15818
L17462 15743
L17462 15668
L17500 15593
L17574 15556
L17762 15556
L17837 15518
" />
<path d="M18099 15331
L18399 15331
" />
<path d="M18212 15068
L18212 15743
L18249 15818
L18324 15856
L18399 15856
" />
<path d="M12550 15856
L12175 15856
L12175 15068
" />
<path d="M13112 15818
L13037 15856
L12887 15856
L12812 15818
L12775 15743
L12775 15443
L12812 15368
L12887 15331
L13037 15331
L13112 15368
L13149 15443
L13149 15518
L12775 15593
" />
<path d="M13824 15856
L13824 15068
" />
<path d="M13824 15818
L13749 15856
L13599 15856
L13524 15818
L13487 15781
L13449 15706
L13449 15481
L13487 15406
L13524 15368
L13599 15331
L13749 15331
L13824 15368
" />
</g> 
</svg>
