G04 #@! TF.FileFunction,Copper,L2,Bot,Signal*
%FSLAX46Y46*%
G04 Gerber Fmt 4.6, Leading zero omitted, Abs format (unit mm)*
G04 Created by KiCad (PCBNEW 4.0.7) date Thu May 24 13:30:27 2018*
%MOMM*%
%LPD*%
G01*
G04 APERTURE LIST*
%ADD10C,0.100000*%
%ADD11C,1.600000*%
%ADD12O,1.600000X1.600000*%
%ADD13R,2.000000X2.000000*%
%ADD14O,2.000000X2.000000*%
%ADD15C,1.520000*%
%ADD16R,1.520000X1.520000*%
%ADD17C,0.500000*%
G04 APERTURE END LIST*
D10*
D11*
X53340000Y-25400000D03*
D12*
X53340000Y-35560000D03*
D11*
X48260000Y-35560000D03*
D12*
X48260000Y-25400000D03*
D13*
X26670000Y-26670000D03*
D14*
X26670000Y-29210000D03*
X26670000Y-31750000D03*
X26670000Y-34290000D03*
X26670000Y-36830000D03*
D13*
X43180000Y-17780000D03*
D14*
X43180000Y-20320000D03*
X43180000Y-22860000D03*
D13*
X38100000Y-17780000D03*
D14*
X38100000Y-20320000D03*
X38100000Y-22860000D03*
D13*
X50800000Y-39370000D03*
D14*
X48260000Y-39370000D03*
D13*
X36830000Y-39370000D03*
D14*
X39370000Y-39370000D03*
D15*
X38100000Y-33020000D03*
X40640000Y-33020000D03*
D16*
X35560000Y-33020000D03*
D17*
X52070000Y-39370000D02*
X50800000Y-39370000D01*
X53340000Y-38100000D02*
X52070000Y-39370000D01*
X53340000Y-35560000D02*
X53340000Y-38100000D01*
X53340000Y-35560000D02*
X53340000Y-34290000D01*
X40640000Y-33020000D02*
X52070000Y-33020000D01*
X52070000Y-33020000D02*
X53340000Y-34290000D01*
X54610000Y-35560000D02*
X53340000Y-35560000D01*
X55880000Y-34290000D02*
X54610000Y-35560000D01*
X43180000Y-20320000D02*
X53340000Y-20320000D01*
X53340000Y-20320000D02*
X55880000Y-22860000D01*
X55880000Y-22860000D02*
X55880000Y-34290000D01*
X38100000Y-20320000D02*
X35560000Y-20320000D01*
X35560000Y-20320000D02*
X29210000Y-26670000D01*
X29210000Y-26670000D02*
X26670000Y-26670000D01*
X26670000Y-26670000D02*
X26670000Y-26670000D01*
X43180000Y-20320000D02*
X38100000Y-20320000D01*
X29210000Y-29210000D02*
X26670000Y-29210000D01*
X38100000Y-22860000D02*
X35560000Y-22860000D01*
X35560000Y-22860000D02*
X29210000Y-29210000D01*
X27940000Y-31750000D02*
X29210000Y-31750000D01*
X29210000Y-31750000D02*
X35560000Y-25400000D01*
X41910000Y-25400000D02*
X35560000Y-25400000D01*
X43180000Y-24130000D02*
X41910000Y-25400000D01*
X43180000Y-22860000D02*
X43180000Y-24130000D01*
X26670000Y-31750000D02*
X27940000Y-31750000D01*
X26670000Y-31750000D02*
X26670000Y-31750000D01*
X46990000Y-27940000D02*
X35560000Y-27940000D01*
X26670000Y-34290000D02*
X29210000Y-34290000D01*
X29210000Y-34290000D02*
X35560000Y-27940000D01*
X48260000Y-26670000D02*
X48260000Y-25400000D01*
X46990000Y-27940000D02*
X48260000Y-26670000D01*
X26670000Y-34290000D02*
X26670000Y-34290000D01*
X25400000Y-36830000D02*
X26670000Y-36830000D01*
X24130000Y-35560000D02*
X25400000Y-36830000D01*
X24130000Y-25400000D02*
X24130000Y-35560000D01*
X30480000Y-19050000D02*
X24130000Y-25400000D01*
X31750000Y-17780000D02*
X30480000Y-19050000D01*
X38100000Y-17780000D02*
X31750000Y-17780000D01*
X30480000Y-39370000D02*
X27940000Y-36830000D01*
X36830000Y-39370000D02*
X30480000Y-39370000D01*
X36830000Y-39370000D02*
X36830000Y-40720000D01*
X36830000Y-40720000D02*
X38020000Y-41910000D01*
X38020000Y-41910000D02*
X46990000Y-41910000D01*
X46990000Y-41910000D02*
X48260000Y-40640000D01*
X48260000Y-40640000D02*
X48260000Y-39370000D01*
X27940000Y-36830000D02*
X26670000Y-36830000D01*
X26670000Y-36830000D02*
X26670000Y-36830000D01*
X36830000Y-39514226D02*
X36757887Y-39442113D01*
X43180000Y-17780000D02*
X38100000Y-17780000D01*
X35560000Y-33020000D02*
X35560000Y-34280000D01*
X35560000Y-34280000D02*
X39370000Y-38090000D01*
X39370000Y-38090000D02*
X39370000Y-39370000D01*
X38100000Y-34290000D02*
X39370000Y-35560000D01*
X39370000Y-35560000D02*
X48260000Y-35560000D01*
X38100000Y-33020000D02*
X38100000Y-34290000D01*
X53340000Y-29210000D02*
X53340000Y-25400000D01*
X52070000Y-30480000D02*
X53340000Y-29210000D01*
X39370000Y-30480000D02*
X52070000Y-30480000D01*
X38100000Y-31750000D02*
X39370000Y-30480000D01*
X38100000Y-33020000D02*
X38100000Y-31750000D01*
M02*
