G04 #@! TF.FileFunction,Drawing*
%FSLAX46Y46*%
G04 Gerber Fmt 4.6, Leading zero omitted, Abs format (unit mm)*
G04 Created by KiCad (PCBNEW 4.0.7) date Thu May 24 13:30:27 2018*
%MOMM*%
%LPD*%
G01*
G04 APERTURE LIST*
%ADD10C,0.100000*%
%ADD11C,0.500000*%
G04 APERTURE END LIST*
D10*
D11*
X40640000Y-31496000D02*
G75*
G03X35560000Y-31496000I-2540000J-1524000D01*
G01*
X36068000Y-35052000D02*
X40132000Y-35052000D01*
X55372000Y-26924000D02*
X51308000Y-26924000D01*
X55372000Y-34036000D02*
X55372000Y-26924000D01*
X51308000Y-34036000D02*
X55372000Y-34036000D01*
X51308000Y-26924000D02*
X51308000Y-34036000D01*
X49784000Y-34036000D02*
X49784000Y-26924000D01*
X46228000Y-34036000D02*
X49784000Y-34036000D01*
X46228000Y-26924000D02*
X46228000Y-34036000D01*
X49784000Y-26924000D02*
X46228000Y-26924000D01*
X40640000Y-40640000D02*
X40640000Y-38100000D01*
X35560000Y-40640000D02*
X40640000Y-40640000D01*
X35560000Y-38100000D02*
X35560000Y-40640000D01*
X40640000Y-38100000D02*
X35560000Y-38100000D01*
X46990000Y-40640000D02*
X46990000Y-38100000D01*
X52070000Y-40640000D02*
X46990000Y-40640000D01*
X52070000Y-38100000D02*
X52070000Y-40640000D01*
X46990000Y-38100000D02*
X52070000Y-38100000D01*
X41910000Y-24130000D02*
X41910000Y-16510000D01*
X44450000Y-24130000D02*
X41910000Y-24130000D01*
X44450000Y-16510000D02*
X44450000Y-24130000D01*
X41910000Y-16510000D02*
X44450000Y-16510000D01*
X36830000Y-24130000D02*
X36830000Y-16510000D01*
X39370000Y-24130000D02*
X36830000Y-24130000D01*
X39370000Y-16510000D02*
X39370000Y-24130000D01*
X36830000Y-16510000D02*
X39370000Y-16510000D01*
X25400000Y-38100000D02*
X25400000Y-25400000D01*
X27940000Y-38100000D02*
X25400000Y-38100000D01*
X27940000Y-25400000D02*
X27940000Y-38100000D01*
X25400000Y-25400000D02*
X27940000Y-25400000D01*
X30892953Y-23764762D02*
X30702477Y-23669524D01*
X30607238Y-23574286D01*
X30512000Y-23383810D01*
X30512000Y-22812381D01*
X30607238Y-22621905D01*
X30702477Y-22526667D01*
X30892953Y-22431429D01*
X31178667Y-22431429D01*
X31369143Y-22526667D01*
X31464381Y-22621905D01*
X31559619Y-22812381D01*
X31559619Y-23383810D01*
X31464381Y-23574286D01*
X31369143Y-23669524D01*
X31178667Y-23764762D01*
X30892953Y-23764762D01*
X32416762Y-22431429D02*
X32416762Y-24431429D01*
X32416762Y-22526667D02*
X32607239Y-22431429D01*
X32988191Y-22431429D01*
X33178667Y-22526667D01*
X33273905Y-22621905D01*
X33369143Y-22812381D01*
X33369143Y-23383810D01*
X33273905Y-23574286D01*
X33178667Y-23669524D01*
X32988191Y-23764762D01*
X32607239Y-23764762D01*
X32416762Y-23669524D01*
X33940572Y-22431429D02*
X34702477Y-22431429D01*
X34226286Y-21764762D02*
X34226286Y-23479048D01*
X34321525Y-23669524D01*
X34512001Y-23764762D01*
X34702477Y-23764762D01*
X38608095Y-42052857D02*
X40131905Y-42052857D01*
X36068095Y-42052857D02*
X37591905Y-42052857D01*
X36830000Y-42814762D02*
X36830000Y-41290952D01*
X47498095Y-20462857D02*
X49021905Y-20462857D01*
X47498095Y-17922857D02*
X49021905Y-17922857D01*
X48260000Y-18684762D02*
X48260000Y-17160952D01*
X32877143Y-34194286D02*
X32972381Y-33908572D01*
X33067619Y-33813333D01*
X33258095Y-33718095D01*
X33543810Y-33718095D01*
X33734286Y-33813333D01*
X33829524Y-33908572D01*
X33924762Y-34099048D01*
X33924762Y-34860953D01*
X31924762Y-34860953D01*
X31924762Y-34194286D01*
X32020000Y-34003810D01*
X32115238Y-33908572D01*
X32305714Y-33813333D01*
X32496190Y-33813333D01*
X32686667Y-33908572D01*
X32781905Y-34003810D01*
X32877143Y-34194286D01*
X32877143Y-34860953D01*
X33734286Y-31718095D02*
X33829524Y-31813333D01*
X33924762Y-32099048D01*
X33924762Y-32289524D01*
X33829524Y-32575238D01*
X33639048Y-32765714D01*
X33448571Y-32860953D01*
X33067619Y-32956191D01*
X32781905Y-32956191D01*
X32400952Y-32860953D01*
X32210476Y-32765714D01*
X32020000Y-32575238D01*
X31924762Y-32289524D01*
X31924762Y-32099048D01*
X32020000Y-31813333D01*
X32115238Y-31718095D01*
X31924762Y-31051429D02*
X31924762Y-29813333D01*
X32686667Y-30480000D01*
X32686667Y-30194286D01*
X32781905Y-30003810D01*
X32877143Y-29908572D01*
X33067619Y-29813333D01*
X33543810Y-29813333D01*
X33734286Y-29908572D01*
X33829524Y-30003810D01*
X33924762Y-30194286D01*
X33924762Y-30765714D01*
X33829524Y-30956191D01*
X33734286Y-31051429D01*
X31924762Y-29146667D02*
X31924762Y-27908571D01*
X32686667Y-28575238D01*
X32686667Y-28289524D01*
X32781905Y-28099048D01*
X32877143Y-28003810D01*
X33067619Y-27908571D01*
X33543810Y-27908571D01*
X33734286Y-28003810D01*
X33829524Y-28099048D01*
X33924762Y-28289524D01*
X33924762Y-28860952D01*
X33829524Y-29051429D01*
X33734286Y-29146667D01*
X31924762Y-27241905D02*
X31924762Y-25908571D01*
X33924762Y-26765714D01*
X50038095Y-42052857D02*
X51561905Y-42052857D01*
X47498095Y-42052857D02*
X49021905Y-42052857D01*
X48260000Y-42814762D02*
X48260000Y-41290952D01*
X23368095Y-36972857D02*
X24891905Y-36972857D01*
X24130000Y-37734762D02*
X24130000Y-36210952D01*
X23368095Y-26812857D02*
X24891905Y-26812857D01*
X54244762Y-30718095D02*
X54244762Y-31860953D01*
X54244762Y-31289524D02*
X52244762Y-31289524D01*
X52530476Y-31480000D01*
X52720952Y-31670476D01*
X52816190Y-31860953D01*
X54244762Y-29860953D02*
X52244762Y-29860953D01*
X53482857Y-29670476D02*
X54244762Y-29099048D01*
X52911429Y-29099048D02*
X53673333Y-29860953D01*
X47831429Y-32003810D02*
X49164762Y-32003810D01*
X47069524Y-32480000D02*
X48498095Y-32956191D01*
X48498095Y-31718095D01*
X47164762Y-31146667D02*
X47164762Y-29813333D01*
X49164762Y-30670476D01*
X47164762Y-28670476D02*
X47164762Y-28480000D01*
X47260000Y-28289524D01*
X47355238Y-28194286D01*
X47545714Y-28099048D01*
X47926667Y-28003809D01*
X48402857Y-28003809D01*
X48783810Y-28099048D01*
X48974286Y-28194286D01*
X49069524Y-28289524D01*
X49164762Y-28480000D01*
X49164762Y-28670476D01*
X49069524Y-28860952D01*
X48974286Y-28956190D01*
X48783810Y-29051429D01*
X48402857Y-29146667D01*
X47926667Y-29146667D01*
X47545714Y-29051429D01*
X47355238Y-28956190D01*
X47260000Y-28860952D01*
X47164762Y-28670476D01*
X54546667Y-39227143D02*
X54832381Y-39322381D01*
X54927620Y-39417619D01*
X55022858Y-39608095D01*
X55022858Y-39893810D01*
X54927620Y-40084286D01*
X54832381Y-40179524D01*
X54641905Y-40274762D01*
X53880000Y-40274762D01*
X53880000Y-38274762D01*
X54546667Y-38274762D01*
X54737143Y-38370000D01*
X54832381Y-38465238D01*
X54927620Y-38655714D01*
X54927620Y-38846190D01*
X54832381Y-39036667D01*
X54737143Y-39131905D01*
X54546667Y-39227143D01*
X53880000Y-39227143D01*
X56737143Y-40274762D02*
X56737143Y-39227143D01*
X56641905Y-39036667D01*
X56451429Y-38941429D01*
X56070477Y-38941429D01*
X55880000Y-39036667D01*
X56737143Y-40179524D02*
X56546667Y-40274762D01*
X56070477Y-40274762D01*
X55880000Y-40179524D01*
X55784762Y-39989048D01*
X55784762Y-39798571D01*
X55880000Y-39608095D01*
X56070477Y-39512857D01*
X56546667Y-39512857D01*
X56737143Y-39417619D01*
X57403810Y-38941429D02*
X58165715Y-38941429D01*
X57689524Y-38274762D02*
X57689524Y-39989048D01*
X57784763Y-40179524D01*
X57975239Y-40274762D01*
X58165715Y-40274762D01*
X30607142Y-40274762D02*
X29654761Y-40274762D01*
X29654761Y-38274762D01*
X32035714Y-40179524D02*
X31845238Y-40274762D01*
X31464286Y-40274762D01*
X31273809Y-40179524D01*
X31178571Y-39989048D01*
X31178571Y-39227143D01*
X31273809Y-39036667D01*
X31464286Y-38941429D01*
X31845238Y-38941429D01*
X32035714Y-39036667D01*
X32130952Y-39227143D01*
X32130952Y-39417619D01*
X31178571Y-39608095D01*
X33845238Y-40274762D02*
X33845238Y-38274762D01*
X33845238Y-40179524D02*
X33654762Y-40274762D01*
X33273810Y-40274762D01*
X33083334Y-40179524D01*
X32988095Y-40084286D01*
X32892857Y-39893810D01*
X32892857Y-39322381D01*
X32988095Y-39131905D01*
X33083334Y-39036667D01*
X33273810Y-38941429D01*
X33654762Y-38941429D01*
X33845238Y-39036667D01*
M02*
