<?xml version="1.0" standalone="no"?>
 <!DOCTYPE svg PUBLIC "-//W3C//DTD SVG 1.1//EN" 
 "http://www.w3.org/Graphics/SVG/1.1/DTD/svg11.dtd"> 
<svg xmlns="http://www.w3.org/2000/svg" version="1.1" 
    width="29.7002cm" height="21.0007cm" viewBox="0 0 116930 82680 ">
<title>SVG Picture created as electronics-Dwgs.User.svg date 2018/05/24 13:30:39 </title>
  <desc>Picture generated by PCBNEW </desc>
<g style="fill:#000000; fill-opacity:1;stroke:#000000; stroke-opacity:1;
stroke-linecap:round; stroke-linejoin:round; "
 transform="translate(0 0) scale(1 1)">
</g>
<g style="fill:#000000; fill-opacity:0.0; 
stroke:#000000; stroke-width:-0.000393701; stroke-opacity:1; 
stroke-linecap:round; stroke-linejoin:round;">
</g>
<g style="fill:#000000; fill-opacity:0.0; 
stroke:#000000; stroke-width:196.85; stroke-opacity:1; 
stroke-linecap:round; stroke-linejoin:round;">
<path d="M16000 12400 A1166.19 1166.19 0.0 0 0 14000 12400 " />
<path d="M14200 13800
L15800 13800
" />
<path d="M21800 10600
L20200 10600
" />
<path d="M21800 13400
L21800 10600
" />
<path d="M20200 13400
L21800 13400
" />
<path d="M20200 10600
L20200 13400
" />
<path d="M19600 13400
L19600 10600
" />
<path d="M18200 13400
L19600 13400
" />
<path d="M18200 10600
L18200 13400
" />
<path d="M19600 10600
L18200 10600
" />
<path d="M16000 16000
L16000 15000
" />
<path d="M14000 16000
L16000 16000
" />
<path d="M14000 15000
L14000 16000
" />
<path d="M16000 15000
L14000 15000
" />
<path d="M18500 16000
L18500 15000
" />
<path d="M20500 16000
L18500 16000
" />
<path d="M20500 15000
L20500 16000
" />
<path d="M18500 15000
L20500 15000
" />
<path d="M16500 9500
L16500 6500
" />
<path d="M17500 9500
L16500 9500
" />
<path d="M17500 6500
L17500 9500
" />
<path d="M16500 6500
L17500 6500
" />
<path d="M14500 9500
L14500 6500
" />
<path d="M15500 9500
L14500 9500
" />
<path d="M15500 6500
L15500 9500
" />
<path d="M14500 6500
L15500 6500
" />
<path d="M10000 15000
L10000 10000
" />
<path d="M11000 15000
L10000 15000
" />
<path d="M11000 10000
L11000 15000
" />
<path d="M10000 10000
L11000 10000
" />
<path d="M12162 9356
L12087 9318
L12050 9281
L12012 9206
L12012 8981
L12050 8906
L12087 8868
L12162 8831
L12275 8831
L12350 8868
L12387 8906
L12425 8981
L12425 9206
L12387 9281
L12350 9318
L12275 9356
L12162 9356
" />
<path d="M12762 8831
L12762 9618
" />
<path d="M12762 8868
L12837 8831
L12987 8831
L13062 8868
L13099 8906
L13137 8981
L13137 9206
L13099 9281
L13062 9318
L12987 9356
L12837 9356
L12762 9318
" />
<path d="M13362 8831
L13662 8831
" />
<path d="M13474 8568
L13474 9243
L13512 9318
L13587 9356
L13662 9356
" />
<path d="M15200 16556
L15799 16556
" />
<path d="M14200 16556
L14799 16556
" />
<path d="M14500 16856
L14500 16256
" />
<path d="M18700 8056
L19299 8056
" />
<path d="M18700 7056
L19299 7056
" />
<path d="M19000 7356
L19000 6756
" />
<path d="M12943 13462
L12981 13349
L13018 13312
L13093 13274
L13206 13274
L13281 13312
L13318 13349
L13356 13424
L13356 13724
L12568 13724
L12568 13462
L12606 13387
L12643 13349
L12718 13312
L12793 13312
L12868 13349
L12906 13387
L12943 13462
L12943 13724
" />
<path d="M13281 12487
L13318 12524
L13356 12637
L13356 12712
L13318 12824
L13243 12899
L13168 12937
L13018 12974
L12906 12974
L12756 12937
L12681 12899
L12606 12824
L12568 12712
L12568 12637
L12606 12524
L12643 12487
" />
<path d="M12568 12224
L12568 11737
L12868 12000
L12868 11887
L12906 11812
L12943 11775
L13018 11737
L13206 11737
L13281 11775
L13318 11812
L13356 11887
L13356 12112
L13318 12187
L13281 12224
" />
<path d="M12568 11475
L12568 10987
L12868 11250
L12868 11137
L12906 11062
L12943 11025
L13018 10987
L13206 10987
L13281 11025
L13318 11062
L13356 11137
L13356 11362
L13318 11437
L13281 11475
" />
<path d="M12568 10725
L12568 10200
L13356 10537
" />
<path d="M19700 16556
L20299 16556
" />
<path d="M18700 16556
L19299 16556
" />
<path d="M19000 16856
L19000 16256
" />
<path d="M9200 14556
L9799 14556
" />
<path d="M9500 14856
L9500 14256
" />
<path d="M9200 10556
L9799 10556
" />
<path d="M21356 12093
L21356 12543
" />
<path d="M21356 12318
L20568 12318
L20681 12393
L20756 12468
L20793 12543
" />
<path d="M21356 11756
L20568 11756
" />
<path d="M21056 11681
L21356 11456
" />
<path d="M20831 11456
L21131 11756
" />
<path d="M18831 12599
L19356 12599
" />
<path d="M18531 12787
L19093 12974
L19093 12487
" />
<path d="M18568 12262
L18568 11737
L19356 12074
" />
<path d="M18568 11287
L18568 11212
L18606 11137
L18643 11100
L18718 11062
L18868 11025
L19056 11025
L19206 11062
L19281 11100
L19318 11137
L19356 11212
L19356 11287
L19318 11362
L19281 11400
L19206 11437
L19056 11475
L18868 11475
L18718 11437
L18643 11400
L18606 11362
L18568 11287
" />
<path d="M21475 15443
L21587 15481
L21625 15518
L21662 15593
L21662 15706
L21625 15781
L21587 15818
L21512 15856
L21212 15856
L21212 15068
L21475 15068
L21550 15106
L21587 15143
L21625 15218
L21625 15293
L21587 15368
L21550 15406
L21475 15443
L21212 15443
" />
<path d="M22337 15856
L22337 15443
L22299 15368
L22224 15331
L22074 15331
L22000 15368
" />
<path d="M22337 15818
L22262 15856
L22074 15856
L22000 15818
L21962 15743
L21962 15668
L22000 15593
L22074 15556
L22262 15556
L22337 15518
" />
<path d="M22599 15331
L22899 15331
" />
<path d="M22712 15068
L22712 15743
L22749 15818
L22824 15856
L22899 15856
" />
<path d="M12050 15856
L11675 15856
L11675 15068
" />
<path d="M12612 15818
L12537 15856
L12387 15856
L12312 15818
L12275 15743
L12275 15443
L12312 15368
L12387 15331
L12537 15331
L12612 15368
L12649 15443
L12649 15518
L12275 15593
" />
<path d="M13324 15856
L13324 15068
" />
<path d="M13324 15818
L13249 15856
L13099 15856
L13024 15818
L12987 15781
L12949 15706
L12949 15481
L12987 15406
L13024 15368
L13099 15331
L13249 15331
L13324 15368
" />
</g> 
</svg>
