M48
;DRILL file {KiCad 4.0.7} date Thu May 24 13:30:28 2018
;FORMAT={-:-/ absolute / inch / decimal}
FMAT,2
INCH,TZ
T1C0.031
%
G90
G05
M72
T1
X1.05Y-1.05
X1.05Y-1.15
X1.05Y-1.25
X1.05Y-1.35
X1.05Y-1.45
X1.4Y-1.3
X1.45Y-1.55
X1.5Y-0.7
X1.5Y-0.8
X1.5Y-0.9
X1.5Y-1.3
X1.55Y-1.55
X1.6Y-1.3
X1.7Y-0.7
X1.7Y-0.8
X1.7Y-0.9
X1.9Y-1.
X1.9Y-1.4
X1.9Y-1.55
X2.Y-1.55
X2.1Y-1.
X2.1Y-1.4
T0
M30
